<?xml version="1.0" encoding="UTF-8"?>
<!DOCTYPE svg PUBLIC "-//W3C//DTD SVG 1.1//EN" "http://www.w3.org/Graphics/SVG/1.1/DTD/svg11.dtd">
<!-- Creator: CorelDRAW 2019 (64-Bit) -->
<svg xmlns="http://www.w3.org/2000/svg" xml:space="preserve" width="150px" height="300px" version="1.1" style="shape-rendering:geometricPrecision; text-rendering:geometricPrecision; image-rendering:optimizeQuality; fill-rule:evenodd; clip-rule:evenodd"
viewBox="0 0 16.57 33.18"
 xmlns:xlink="http://www.w3.org/1999/xlink">
 <defs>
  <style type="text/css">
   <![CDATA[
    .str0 {stroke:#19A0FA;stroke-width:0.72;stroke-miterlimit:22.9256}
    .fil7 {fill:none}
    .fil1 {fill:#0AC97A}
    .fil0 {fill:#0BE38A}
    .fil4 {fill:#19A0FA}
    .fil3 {fill:#756A6B}
    .fil2 {fill:#D1D3D4}
    .fil6 {fill:#D44A3C}
    .fil5 {fill:#FF5948}
   ]]>
  </style>
 </defs>
 <g id="Capa_x0020_1">
  <metadata id="CorelCorpID_0Corel-Layer"/>
  <path class="fil0 str0" d="M8.28 0.36c4.38,0 7.93,3.55 7.93,7.92 0,0.73 -0.1,1.44 -0.28,2.11l-0.01 0.01c-0.08,0.3 -0.18,0.59 -0.3,0.88l-7.09 20.81 -7.46 -20.52c-0.17,-0.38 -0.31,-0.77 -0.42,-1.18l-0.01 0c-0.18,-0.67 -0.28,-1.38 -0.28,-2.11 0,-4.37 3.55,-7.92 7.92,-7.92z"/>
  <polygon class="fil1" points="3.47,12.22 13.44,17.67 15.75,9.57 13.11,8.12 11.68,7.92 11.33,6.18 8.15,9.95 7.16,10.25 5.81,8.39 3.66,8.5 2.76,10.03 "/>
  <path class="fil2" d="M2.97 9.82c0.02,-0.09 0.11,-0.15 0.21,-0.13l1.21 0.26 -0.67 -1.04c-0.05,-0.09 -0.03,-0.19 0.05,-0.25 0.08,-0.05 0.19,-0.02 0.24,0.06l0.68 1.04 0.26 -1.22c0.02,-0.09 0.11,-0.15 0.21,-0.13 0.09,0.02 0.15,0.11 0.13,0.21l-0.26 1.22 1.05 -0.68c0.08,-0.05 0.19,-0.03 0.24,0.05 0.05,0.08 0.03,0.19 -0.05,0.24l-1.05 0.68 1.22 0.26c0.09,0.02 0.15,0.12 0.13,0.21 -0.02,0.08 -0.09,0.14 -0.17,0.14 -0.01,0 -0.02,0 -0.04,-0.01l-1.21 -0.26 0.67 1.05c0.06,0.08 0.03,0.19 -0.05,0.24 -0.03,0.02 -0.06,0.03 -0.09,0.03 -0.06,0 -0.12,-0.03 -0.15,-0.08l-0.68 -1.05 -0.26 1.22c-0.02,0.08 -0.09,0.14 -0.17,0.14 -0.01,0 -0.02,0 -0.04,-0.01 -0.09,-0.02 -0.15,-0.11 -0.13,-0.2l0.26 -1.22 -1.05 0.67c-0.02,0.02 -0.06,0.03 -0.09,0.03 -0.06,0 -0.11,-0.03 -0.15,-0.08 -0.05,-0.08 -0.03,-0.19 0.05,-0.24l1.05 -0.68 -1.22 -0.26c-0.09,-0.02 -0.15,-0.11 -0.13,-0.21z"/>
  <path class="fil2" d="M10.29 10.31l1.22 -0.2 -1.01 -0.73c-0.08,-0.05 -0.1,-0.16 -0.04,-0.24 0.06,-0.08 0.17,-0.1 0.25,-0.04l1.01 0.72 -0.21 -1.22c-0.01,-0.1 0.05,-0.19 0.15,-0.21 0.09,-0.01 0.18,0.05 0.2,0.15l0.2 1.23 0.73 -1.02c0.05,-0.07 0.16,-0.09 0.24,-0.04 0.08,0.06 0.1,0.17 0.04,0.25l-0.72 1.01 1.23 -0.2c0.09,-0.02 0.18,0.04 0.2,0.14 0.01,0.1 -0.05,0.19 -0.15,0.2l-1.22 0.21 1.01 0.72c0.08,0.06 0.1,0.17 0.04,0.24 -0.03,0.05 -0.09,0.08 -0.14,0.08 -0.04,0 -0.07,-0.01 -0.11,-0.04l-1.01 -0.72 0.21 1.23c0.01,0.09 -0.05,0.18 -0.15,0.2 -0.01,0 -0.02,0 -0.03,0 -0.08,0 -0.16,-0.06 -0.17,-0.14l-0.2 -1.23 -0.73 1.01c-0.03,0.05 -0.09,0.07 -0.14,0.07 -0.04,0 -0.07,-0.01 -0.1,-0.03 -0.08,-0.05 -0.1,-0.16 -0.04,-0.24l0.72 -1.02 -1.23 0.21c-0.01,0 -0.02,0 -0.03,0 -0.08,0 -0.15,-0.06 -0.17,-0.15 -0.01,-0.09 0.05,-0.18 0.15,-0.2z"/>
  <path class="fil3" d="M11.96 7.82c1.32,0 2.39,1.07 2.39,2.39 0,1.32 -1.07,2.39 -2.39,2.39 -1.32,0 -2.39,-1.07 -2.39,-2.39 0,-1.32 1.07,-2.39 2.39,-2.39zm0 4.06c0.92,0 1.67,-0.75 1.67,-1.67 0,-0.92 -0.75,-1.67 -1.67,-1.67 -0.92,0 -1.67,0.75 -1.67,1.67 0,0.92 0.75,1.67 1.67,1.67z"/>
  <path class="fil3" d="M4.77 7.82c1.32,0 2.39,1.07 2.39,2.39 0,1.32 -1.07,2.39 -2.39,2.39 -1.32,0 -2.39,-1.07 -2.39,-2.39 0,-1.32 1.07,-2.39 2.39,-2.39zm0 4.06c0.92,0 1.67,-0.75 1.67,-1.67 0,-0.92 -0.75,-1.67 -1.67,-1.67 -0.92,0 -1.67,0.75 -1.67,1.67 0,0.92 0.75,1.67 1.67,1.67z"/>
  <path class="fil4" d="M4.63 10.1l2.52 -3.65 -0.53 -0.77c-0.05,-0.08 -0.03,-0.19 0.05,-0.25 0.08,-0.05 0.18,-0.03 0.24,0.05l0.54 0.79 3.64 -0.28 -0.3 -1.8c-0.04,-0.21 -0.21,-0.35 -0.41,-0.35l-0.71 0c-0.1,0 -0.18,-0.08 -0.18,-0.18 0,-0.1 0.08,-0.18 0.18,-0.18l0.71 0c0.37,0 0.69,0.27 0.76,0.65l0.99 6.05c0.02,0.09 -0.05,0.18 -0.14,0.2 -0.01,0 -0.02,0 -0.03,0 -0.08,0 -0.16,-0.06 -0.17,-0.15l-0.61 -3.67 -2.99 3.58c0,0 0,0 0,0l0 0c-0.01,0 -0.01,0 -0.01,0 0,0.01 0,0.01 -0.01,0.01 0,0 0,0 0,0.01 0,0 -0.01,0 -0.01,0 0,0.01 0,0.01 0,0.01 -0.01,0 -0.01,0 -0.01,0 -0.01,0.01 -0.01,0.01 -0.01,0.01 0,0 -0.01,0 -0.01,0 0,0 0,0 0,0.01 -0.01,0 -0.01,0 -0.01,0 -0.01,0 -0.01,0 -0.01,0 -0.01,0 -0.01,0 -0.01,0.01 0,0 -0.01,0 -0.01,0 0,0 0,0 -0.01,0 0,0 0,0 0,0 0,0 0,0 -0.01,0 0,0 0,0 -0.01,0 0,0 0,0 0,0l-3.28 0.18c0,0 -0.01,0 -0.01,0 -0.06,0 -0.12,-0.03 -0.15,-0.09 -0.04,-0.06 -0.03,-0.13 0.01,-0.19zm2.94 -3.49l0.58 3.02 2.74 -3.27 -3.32 0.25zm0.27 3.25l-0.57 -2.97 -2.15 3.12 2.72 -0.15z"/>
  <path class="fil5" d="M6.21 5.79l1.54 0c0.17,0 0.31,-0.13 0.31,-0.31l0 -0.1c0,-0.17 -0.14,-0.31 -0.31,-0.31l-1.54 0c-0.05,0 -0.08,0.03 -0.08,0.08l0 0.57c0,0.04 0.03,0.07 0.08,0.07z"/>
  <path class="fil6" d="M6.21 5.07l0.77 0c-0.05,0 -0.08,0.03 -0.08,0.08l0 0.57c0,0.04 0.03,0.07 0.08,0.07l-0.77 0c-0.05,0 -0.08,-0.03 -0.08,-0.07l0 -0.57c0,-0.05 0.03,-0.08 0.08,-0.08z"/>
  <path class="fil7 str0" d="M8.28 0.36c4.38,0 7.93,3.55 7.93,7.92 0,0.73 -0.1,1.44 -0.28,2.11l-0.01 0.01c-0.08,0.3 -0.18,0.59 -0.3,0.88l-7.09 20.81 -7.46 -20.52c-0.17,-0.38 -0.31,-0.77 -0.42,-1.18l-0.01 0c-0.18,-0.67 -0.28,-1.38 -0.28,-2.11 0,-4.37 3.55,-7.92 7.92,-7.92z"/>
 </g>
</svg>
