<?xml version="1.0" encoding="UTF-8"?>
<!DOCTYPE svg PUBLIC "-//W3C//DTD SVG 1.1//EN" "http://www.w3.org/Graphics/SVG/1.1/DTD/svg11.dtd">
<!-- Creator: CorelDRAW 2019 (64-Bit) -->
<svg xmlns="http://www.w3.org/2000/svg" xml:space="preserve" width="150px" height="300px" version="1.1" style="shape-rendering:geometricPrecision; text-rendering:geometricPrecision; image-rendering:optimizeQuality; fill-rule:evenodd; clip-rule:evenodd"
viewBox="0 0 10.77 21.57"
 xmlns:xlink="http://www.w3.org/1999/xlink">
 <defs>
  <style type="text/css">
   <![CDATA[
    .str0 {stroke:#19A0FA;stroke-width:0.47;stroke-miterlimit:22.9256}
    .fil2 {fill:none}
    .fil1 {fill:#0AC97A}
    .fil0 {fill:#0BE38A}
    .fil3 {fill:#19A0FA}
    .fil4 {fill:#AED9FF}
    .fil5 {fill:#C44739}
    .fil7 {fill:#D44A3C}
    .fil9 {fill:#E47500}
    .fil10 {fill:#FF5948}
    .fil6 {fill:#FF7363}
    .fil8 {fill:white}
   ]]>
  </style>
 </defs>
 <g id="Capa_x0020_1">
  <metadata id="CorelCorpID_0Corel-Layer"/>
  <path class="fil0 str0" d="M5.39 0.24c2.84,0 5.15,2.3 5.15,5.15 0,0.47 -0.07,0.93 -0.19,1.36l0 0.01c-0.05,0.19 -0.12,0.39 -0.2,0.57l-4.61 13.53 -4.84 -13.34c-0.11,-0.24 -0.21,-0.5 -0.28,-0.76l0 -0.01c-0.12,-0.43 -0.18,-0.89 -0.18,-1.36 0,-2.85 2.3,-5.15 5.15,-5.15z"/>
  <polygon class="fil1" points="2.47,8.18 8.71,11.58 10.46,6.45 8.3,5.27 "/>
  <path class="fil2 str0" d="M5.39 0.24c2.84,0 5.15,2.3 5.15,5.15 0,0.47 -0.07,0.93 -0.19,1.36l0 0.01c-0.05,0.19 -0.12,0.39 -0.2,0.57l-4.61 13.53 -4.84 -13.34c-0.11,-0.24 -0.21,-0.5 -0.28,-0.76l0 -0.01c-0.12,-0.43 -0.18,-0.89 -0.18,-1.36 0,-2.85 2.3,-5.15 5.15,-5.15z"/>
  <g id="_962468848">
   <rect class="fil3" x="2.47" y="4.35" width="5.82" height="3.82"/>
   <rect class="fil4" x="2.47" y="4.35" width="2.02" height="3.82"/>
   <path class="fil5" d="M2.72 4.74l-0.03 0c-0.24,0 -0.44,-0.2 -0.44,-0.44l0 -0.46 0.9 0 0 0.46c0,0.24 -0.19,0.44 -0.43,0.44z"/>
   <path class="fil6" d="M3.61 4.74l-0.03 0c-0.24,0 -0.43,-0.2 -0.43,-0.44l0 -0.46 0.89 0 0 0.46c0,0.24 -0.19,0.44 -0.43,0.44z"/>
   <path class="fil5" d="M4.51 4.74l-0.03 0c-0.24,0 -0.44,-0.2 -0.44,-0.44l0 -0.46 0.9 0 0 0.46c0,0.24 -0.2,0.44 -0.43,0.44z"/>
   <path class="fil6" d="M5.83 3.84l0 0.46c0,0.24 -0.19,0.44 -0.43,0.44l-0.03 0c-0.24,0 -0.43,-0.2 -0.43,-0.44l0 -0.46 0.89 0z"/>
   <path class="fil5" d="M6.29 4.74l-0.03 0c-0.23,0 -0.43,-0.2 -0.43,-0.44l0 -0.46 0.9 0 0 0.46c0,0.24 -0.2,0.44 -0.44,0.44z"/>
   <path class="fil5" d="M8.08 4.74l-0.03 0c-0.24,0 -0.43,-0.2 -0.43,-0.44l0 -0.46 0.9 0 0 0.46c0,0.24 -0.2,0.44 -0.44,0.44z"/>
   <path class="fil6" d="M7.19 4.74l-0.03 0c-0.24,0 -0.43,-0.2 -0.43,-0.44l0 -0.46 0.89 0 0 0.46c0,0.24 -0.19,0.44 -0.43,0.44z"/>
   <polygon class="fil7" points="8.52,3.84 2.25,3.84 3.01,1.55 7.76,1.55 "/>
   <rect class="fil8" x="3.73" y="6.04" width="0.39" height="0.49"/>
   <rect class="fil4" x="5.53" y="5.51" width="2.13" height="1.43"/>
   <rect class="fil9" x="5.38" y="6.55" width="2.44" height="0.39"/>
   <path class="fil6" d="M5.83 3.84l0 0.46c0,0.24 -0.19,0.44 -0.43,0.44l-0.01 0 0 -0.9 0.44 0z"/>
   <polygon class="fil10" points="8.52,3.84 5.39,3.84 5.39,1.55 7.76,1.55 "/>
  </g>
 </g>
</svg>
